HIERARCHY
ROOT Hips
{
	OFFSET -3.958830 18.904000 13.208200
	CHANNELS 6 Xposition Yposition Zposition Zrotation Yrotation Xrotation 
	JOINT LHipJoint
	{
		OFFSET 0.000000 0.000000 0.000000
		CHANNELS 3 Zrotation Yrotation Xrotation
		JOINT LeftUpLeg
		{
			OFFSET 1.800000 -1.400000 0.085000
			CHANNELS 3 Zrotation Yrotation Xrotation
			JOINT LeftLeg
			{
				OFFSET 2.215000 -6.000000 0.000000
				CHANNELS 3 Zrotation Yrotation Xrotation
				JOINT LeftFoot
				{
					OFFSET 2.500000 -6.900000 0.000000
					CHANNELS 3 Zrotation Yrotation Xrotation
					JOINT LeftToeBase
					{
						OFFSET 0.200000 -0.500000 1.950000
						CHANNELS 3 Zrotation Yrotation Xrotation
						End Site
						{
							OFFSET 0.000000 0.000000 0.000000
						}
					}
				}
			}
		}
	}
	JOINT RHipJoint
	{
		OFFSET 0.000000 0.000000 0.000000
		CHANNELS 3 Zrotation Yrotation Xrotation
		JOINT RightUpLeg
		{
			OFFSET -1.800000 -1.400000 0.085000
			CHANNELS 3 Zrotation Yrotation Xrotation
			JOINT RightLeg
			{
				OFFSET -2.215000 -6.000000 0.000000
				CHANNELS 3 Zrotation Yrotation Xrotation
				JOINT RightFoot
				{
					OFFSET -2.500000 -6.900000 0.000000
					CHANNELS 3 Zrotation Yrotation Xrotation
					JOINT RightToeBase
					{
						OFFSET -0.200000 -0.500000 1.950000
						CHANNELS 3 Zrotation Yrotation Xrotation
						End Site
						{
							OFFSET 0.000000 0.000000 0.000000
						}
					}
				}
			}
		}
	}
	JOINT LowerBack
	{
		OFFSET 0.000000 0.000000 0.000000
		CHANNELS 3 Zrotation Yrotation Xrotation
		JOINT Spine
		{
			OFFSET -0.087000 1.940000 -0.288900
			CHANNELS 3 Zrotation Yrotation Xrotation
			JOINT Spine1
			{
				OFFSET 0.000000 1.950000 0.060000
				CHANNELS 3 Zrotation Yrotation Xrotation
				JOINT Neck
				{
					OFFSET 0.000000 0.000000 0.000000
					CHANNELS 3 Zrotation Yrotation Xrotation
					JOINT Neck1
					{
						OFFSET 0.000000 1.600000 0.340000
						CHANNELS 3 Zrotation Yrotation Xrotation
						JOINT Head
						{
							OFFSET 0.000000 1.667000 -0.240000
							CHANNELS 3 Zrotation Yrotation Xrotation
							End Site
							{
								OFFSET 0.000000 0.000000 0.000000
							}
						}
					}
				}
				JOINT LeftShoulder
				{
					OFFSET 0.000000 0.000000 0.000000
					CHANNELS 3 Zrotation Yrotation Xrotation
					JOINT LeftArm
					{
						OFFSET 2.700000 1.550000 -0.730000
						CHANNELS 3 Zrotation Yrotation Xrotation
						JOINT LeftForeArm
						{
							OFFSET 5.450000 0.000000 0.000000
							CHANNELS 3 Zrotation Yrotation Xrotation
							JOINT LeftHand
							{
								OFFSET 3.450000 0.000000 0.000000
								CHANNELS 3 Zrotation Yrotation Xrotation
								JOINT LeftHandIndex1
								{
									OFFSET 0.750000 0.000000 0.000000
									CHANNELS 3 Zrotation Yrotation Xrotation
									End Site
									{
										OFFSET 0.000000 0.000000 0.000000
									}
								}
							}
						}
					}
				}
				JOINT RightShoulder
				{
					OFFSET 0.000000 0.000000 0.000000
					CHANNELS 3 Zrotation Yrotation Xrotation
					JOINT RightArm
					{
						OFFSET -2.700000 1.550000 -0.730000
						CHANNELS 3 Zrotation Yrotation Xrotation
						JOINT RightForeArm
						{
							OFFSET -5.450000 0.000000 0.000000
							CHANNELS 3 Zrotation Yrotation Xrotation
							JOINT RightHand
							{
								OFFSET -3.450000 0.000000 0.000000
								CHANNELS 3 Zrotation Yrotation Xrotation
								JOINT RightHandIndex1
								{
									OFFSET -0.750000 0.000000 0.000000
									CHANNELS 3 Zrotation Yrotation Xrotation
									End Site
									{
										OFFSET 0.000000 0.000000 0.000000
									}
								}
							}
						}
					}
				}
			}
		}
	}
}
MOTION
Frames: 7
Frame Time: 0.016667
-10.372170 16.825030 2.593840 -2.813554 -30.423685 -5.834848 -14.794514 13.563015 3.336583 5.756889 -2.971072 -21.625691 -3.292430 3.289307 7.282427 -1.349249 2.981740 3.435709 0.915940 0.530200 0.829060 18.555233 -11.006314 2.533559 -2.062567 -0.798331 -2.297829 -1.222810 -4.342730 17.027746 -0.718105 -3.873045 2.901760 0.521260 -0.010680 0.235990 -4.317934 -2.912339 -7.022381 16.060483 -2.143090 19.433516 -6.749559 3.049598 8.268494 -3.702949 -8.306289 -17.085921 -33.173370 38.214078 22.286355 4.131310 26.722940 -20.622530 -11.265814 -19.517587 3.515205 -10.981170 -26.108867 1.726520 -93.159638 -85.647943 80.611731 -4.137705 0.703421 1.017610 -0.094120 0.218540 0.128210 19.052242 18.299047 13.324688 20.049104 -9.708850 -3.169469 -22.841062 9.634990 -0.936645 2.044639 -1.545911 -0.379880 0.307080 -0.094960 -0.529310 
-10.349820 16.820310 2.576610 -2.901021 -29.908535 -5.885051 -14.808862 13.569009 3.370858 6.504503 -2.818359 -21.329325 -4.006751 3.352869 6.225357 -1.320360 3.063466 3.408025 0.892580 0.500040 0.819970 18.547092 -10.944168 2.505783 -1.601709 -0.720443 -2.588379 -1.672973 -4.239292 17.768375 -0.707244 -3.860890 2.905175 0.501670 -0.013720 0.234640 -4.275994 -3.041319 -7.041898 15.894840 -2.283456 19.919185 -6.774251 2.913880 7.901208 -3.635812 -8.302108 -16.945359 -32.961100 37.694426 22.274914 3.535310 26.546430 -20.772520 -10.850897 -20.474616 2.836427 -11.735280 -24.045711 -1.830182 -112.139818 -80.908692 99.238487 -3.649177 1.431634 1.016880 -0.095420 0.215850 0.121020 18.401637 18.928855 13.713402 21.091614 -9.567214 -3.345574 -22.876842 9.459787 -0.897489 2.053344 -1.538885 -0.383300 0.300190 -0.087930 -0.531270 
-10.329970 16.813990 2.563790 -2.784598 -29.309922 -5.340544 -14.824431 13.496952 3.448760 7.211637 -2.785293 -21.306900 -4.965896 3.328762 4.633103 -1.294678 3.114163 3.380538 0.923620 0.551730 0.829630 18.545891 -10.877787 2.460533 -1.407903 -0.555986 -3.321743 -1.720245 -4.157437 18.117241 -0.695810 -3.821653 2.915801 0.527280 -0.024100 0.241200 -4.260006 -3.080234 -7.081221 15.659411 -2.175126 19.315320 -6.840232 2.897238 8.078242 -3.856628 -8.361163 -16.806188 -32.308379 37.380990 21.764435 3.426160 26.514170 -20.991690 -10.380276 -20.403854 2.984258 -11.989832 -23.811790 -1.870071 -124.335715 -80.248640 112.400016 -3.466949 2.267950 0.991500 -0.086510 0.218400 0.128510 18.290964 18.922096 13.491414 21.552023 -8.726741 -3.216610 -23.075705 8.445587 -0.801004 2.064053 -1.571755 -0.358860 0.284980 -0.107990 -0.523130 
-10.310570 16.813090 2.543060 -2.518840 -28.636001 -4.908095 -14.844641 13.408688 3.556802 8.132252 -2.756810 -20.996713 -6.293218 3.322610 2.785336 -1.279059 3.271306 3.327942 0.916270 0.543700 0.826860 18.536492 -10.801264 2.405854 -1.576176 -0.376202 -4.023574 -1.329103 -4.202157 18.226963 -0.677583 -3.766158 2.929486 0.530930 -0.015510 0.233780 -4.222890 -3.122600 -7.150230 15.100469 -2.007937 19.060079 -6.879807 2.984915 8.102826 -3.962185 -8.408805 -16.809984 -31.941341 37.149901 21.406238 3.533550 26.336060 -21.410670 -10.007323 -20.269278 3.198323 -11.885316 -23.740584 -1.502061 -134.865834 -80.031966 123.715457 -3.423141 2.683239 0.999250 -0.085700 0.213020 0.123080 18.147280 18.941191 13.374850 22.216529 -8.421659 -3.307357 -22.947493 8.488171 -0.810823 2.052527 -1.555716 -0.373690 0.303750 -0.096450 -0.527860 
-10.292800 16.812180 2.518190 -2.099106 -27.490547 -4.530799 -14.877140 13.356039 3.658823 8.966811 -2.766534 -20.733278 -7.477297 3.337358 1.463248 -1.233840 3.419934 3.282713 0.926550 0.560070 0.833390 18.514459 -10.704485 2.351184 -1.848667 -0.252063 -4.569130 -0.879089 -4.245347 18.107834 -0.660659 -3.712568 2.952682 0.540440 -0.012050 0.224320 -4.138275 -3.258421 -7.217960 14.024609 -1.935734 18.763105 -6.463961 2.832534 8.158522 -4.104545 -8.515882 -16.719965 -31.862677 36.986823 20.930275 3.498140 26.271720 -21.302050 -9.842067 -19.872547 3.360527 -11.901014 -23.751306 -1.135592 -143.749007 -80.216350 133.732409 -3.406362 2.914061 0.986210 -0.082510 0.208170 0.132910 18.304469 18.782114 13.217205 22.241292 -8.206643 -3.297610 -22.777526 8.902929 -0.903957 2.049677 -1.565266 -0.372650 0.309340 -0.112640 -0.522900 
-10.271080 16.814210 2.485270 -1.899478 -26.138928 -4.303376 -14.909580 13.339731 3.726914 10.092659 -2.687080 -20.391016 -8.366620 3.425138 0.780671 -1.177727 3.605157 3.225686 0.907430 0.530260 0.815830 18.487262 -10.605947 2.326817 -1.959237 -0.181117 -4.819467 -0.287909 -4.350339 17.848935 -0.645620 -3.688243 2.963047 0.520760 0.006690 0.231960 -4.039674 -3.423138 -7.293841 13.093549 -2.052049 18.928745 -5.958402 2.602617 8.392171 -4.059259 -8.576199 -16.912143 -31.809854 36.778495 20.720913 3.506980 26.232110 -20.499220 -9.782973 -19.901272 3.856848 -11.246099 -23.165398 -1.079634 -158.123365 -80.310985 149.736121 -3.418912 3.176250 0.975720 -0.073730 0.196650 0.143200 18.293503 19.012785 13.228453 22.364042 -7.961798 -3.358444 -22.635814 9.090578 -0.944683 2.058498 -1.578021 -0.374570 0.299090 -0.111490 -0.513650 
-10.252830 16.807210 2.461960 -1.564736 -24.826447 -3.690957 -14.949190 13.354620 3.776898 10.962790 -2.660953 -20.217256 -8.743167 3.460085 0.344729 -1.155959 3.731380 3.177429 0.902280 0.521830 0.799400 18.453297 -10.510056 2.288714 -2.179877 -0.034358 -5.502990 0.158905 -4.378822 17.654321 -0.610685 -3.633265 2.982223 0.521460 0.022370 0.235250 -3.924197 -3.628945 -7.331750 11.972402 -1.870225 18.341103 -5.343537 2.508718 8.555805 -4.235711 -8.738133 -16.802967 -31.188223 36.090349 20.128824 3.843360 25.771220 -19.901850 -9.338349 -19.435216 4.021417 -11.048032 -23.375685 -0.677484 -171.823887 -80.928631 165.415093 -3.454488 3.342303 0.955870 -0.059050 0.173160 0.146520 18.286678 18.875222 13.153854 22.738246 -8.029946 -3.350365 -22.554554 9.121397 -0.958021 2.052547 -1.600514 -0.374490 0.288740 -0.104590 -0.509360 
